<?xml version="1.0" encoding="iso-8859-1"?>
<!-- Generator: Adobe Illustrator 19.0.0, SVG Export Plug-In . SVG Version: 6.00 Build 0)  -->
<svg version="1.1" id="Layer_1" xmlns="http://www.w3.org/2000/svg" xmlns:xlink="http://www.w3.org/1999/xlink" x="0px" y="0px"
	 viewBox="0 0 512 512" style="enable-background:new 0 0 512 512;" xml:space="preserve">
<g>
	<g>
		<g>
			<path d="M35.106,144c4.139,2.278,9.327,0.777,11.597-3.345C88.789,64.427,168.994,17.067,256,17.067
				c65.766,0,127.992,26.547,172.74,73.267c-21.376,9.412-36.207,30.908-36.207,54.733c0,32.939,26.803,59.733,59.733,59.733
				c17.4,0,33.903-7.569,45.278-20.77c0.222-0.256,0.299-0.58,0.478-0.862c0.324-0.478,0.623-0.947,0.845-1.485
				c0.205-0.521,0.341-1.033,0.452-1.579c0.102-0.521,0.171-1.024,0.179-1.562c0.008-0.597-0.085-1.169-0.196-1.758
				c-0.068-0.316-0.009-0.631-0.111-0.947c-7.279-22.528-17.681-43.904-30.908-63.531c-2.628-3.908-7.953-4.941-11.844-2.313
				c-3.908,2.637-4.941,7.936-2.304,11.844c11.401,16.922,20.42,35.268,27.11,54.519c-7.851,7.279-18.167,11.375-28.979,11.375
				c-23.526,0-42.667-19.14-42.667-42.667c0-20.506,15.445-38.596,35.917-42.086c3.029-0.521,5.547-2.62,6.588-5.513
				c1.05-2.893,0.461-6.118-1.536-8.448C402.133,32.444,331.213,0,256,0C162.773,0,76.86,50.739,31.77,132.412
				C29.483,136.533,30.985,141.722,35.106,144z"/>
			<path d="M392.499,392.533c18.825,0,34.133-15.309,34.133-34.133s-15.309-34.133-34.133-34.133s-34.133,15.309-34.133,34.133
				S373.675,392.533,392.499,392.533z M392.499,341.333c9.412,0,17.067,7.654,17.067,17.067s-7.654,17.067-17.067,17.067
				c-9.404,0-17.067-7.654-17.067-17.067S383.096,341.333,392.499,341.333z"/>
			<path d="M350.089,136.533c4.71,0,8.533-3.823,8.533-8.533s-3.823-8.533-8.533-8.533h-0.085c-4.71,0-8.491,3.823-8.491,8.533
				S345.378,136.533,350.089,136.533z"/>
			<path d="M426.667,251.733c0,7.057,5.743,12.8,12.8,12.8s12.8-5.743,12.8-12.8s-5.743-12.8-12.8-12.8
				S426.667,244.676,426.667,251.733z"/>
			<path d="M333.056,409.6h-0.085c-4.71,0-8.491,3.823-8.491,8.533s3.866,8.533,8.576,8.533s8.533-3.823,8.533-8.533
				S337.766,409.6,333.056,409.6z"/>
			<path d="M128.222,187.733h-0.085c-4.71,0-8.491,3.823-8.491,8.533s3.866,8.533,8.576,8.533s8.533-3.823,8.533-8.533
				S132.932,187.733,128.222,187.733z"/>
			<path d="M51.166,315.733c0,14.114,11.486,25.6,25.6,25.6s25.6-11.486,25.6-25.6s-11.486-25.6-25.6-25.6
				S51.166,301.619,51.166,315.733z M85.299,315.733c0,4.702-3.823,8.533-8.533,8.533s-8.533-3.831-8.533-8.533
				s3.823-8.533,8.533-8.533S85.299,311.031,85.299,315.733z"/>
			<path d="M149.333,128c7.057,0,12.8-5.743,12.8-12.8s-5.743-12.8-12.8-12.8c-7.057,0-12.8,5.743-12.8,12.8
				S142.276,128,149.333,128z"/>
			<path d="M507.529,208.077c-0.879-4.634-5.325-7.689-9.967-6.801c-4.634,0.879-7.68,5.342-6.801,9.975
				c2.765,14.635,4.173,29.696,4.173,44.749c0,131.746-107.187,238.933-238.933,238.933S17.067,387.746,17.067,256
				c0-5.862,0.205-11.75,0.631-17.579c2.432,0.341,5.043,0.512,7.868,0.512c23.526,0,42.667-19.14,42.667-42.667
				c0-22.989-17.988-41.719-40.951-42.633c-3.755-0.111-6.895,1.988-8.252,5.316c-5.205,12.826-9.532,26.462-12.51,39.424
				c-1.058,4.591,1.809,9.173,6.409,10.232c4.574,1.05,9.173-1.809,10.223-6.409c2.304-10.018,5.47-20.489,9.276-30.618
				c10.871,2.995,18.739,12.902,18.739,24.687c0,14.114-11.486,25.6-25.6,25.6c-5.009,0-8.678-0.674-11.554-2.125
				c-2.483-1.254-5.427-1.22-7.893,0.102c-2.449,1.323-4.113,3.763-4.429,6.536C0.563,236.1,0,246.067,0,256
				c0,141.158,114.842,256,256,256s256-114.842,256-256C512,239.881,510.49,223.761,507.529,208.077z"/>
			<path d="M170.633,384c0,23.526,19.14,42.667,42.667,42.667c23.526,0,42.667-19.14,42.667-42.667
				c0-23.526-19.14-42.667-42.667-42.667C189.773,341.333,170.633,360.474,170.633,384z M238.899,384
				c0,14.114-11.486,25.6-25.6,25.6s-25.6-11.486-25.6-25.6s11.486-25.6,25.6-25.6S238.899,369.886,238.899,384z"/>
			<path d="M281.6,302.933c0,7.057,5.743,12.8,12.8,12.8s12.8-5.743,12.8-12.8s-5.743-12.8-12.8-12.8S281.6,295.876,281.6,302.933z"
				/>
			<path d="M273.033,221.867c0-18.825-15.309-34.133-34.133-34.133s-34.133,15.309-34.133,34.133S220.075,256,238.899,256
				S273.033,240.691,273.033,221.867z M238.899,238.933c-9.404,0-17.067-7.654-17.067-17.067c0-9.412,7.663-17.067,17.067-17.067
				c9.412,0,17.067,7.654,17.067,17.067C255.966,231.279,248.311,238.933,238.899,238.933z"/>
			<path d="M324.233,76.8c0-14.114-11.486-25.6-25.6-25.6c-14.114,0-25.6,11.486-25.6,25.6s11.486,25.6,25.6,25.6
				C312.747,102.4,324.233,90.914,324.233,76.8z M298.633,85.333c-4.71,0-8.533-3.831-8.533-8.533c0-4.702,3.823-8.533,8.533-8.533
				c4.71,0,8.533,3.831,8.533,8.533C307.166,81.502,303.343,85.333,298.633,85.333z"/>
		</g>
	</g>
</g>
</svg>
